<svg xmlns="http://www.w3.org/2000/svg" viewBox="0 0 606 558" role="img" aria-label="Ketos">
  <path fill="#102C48" d="M603 70c-2-4-5-5-9-8-17-10-53-21-78-27-54-14-111-24-173-32-41-5-75-4-92-3-59 4-104 20-137 42-41 27-73 63-89 92C8 165 1 195 0 217c-2 37 10 77 39 120 13 18 48 40 48 38-15-19-25-35-28-55-7-40 1-71 23-112 18-23 45-40 67-48 35-13 69-13 107-7 24 4 53 28 77 34 41 17 83 17 130 8 32-8 62-19 75-30 28-18 36-28 38-31 3-5 3-15 7-22 5-7 16-15 20-19 4-4 2-2 2-6 0-4 0-13-2-17zM326 108c-1-3 15-6 22-7 16-3 31 1 47 8 0 3-20 8-27 9-16 4-41-7-42-10z"/>
  <path fill="#315878" d="M293 180c3-3-13-6-21-8-33-9-69-12-100 0-24 9-47 25-59 41-17 20-24 45-21 74 2 24 14 47 25 62l45 46c11 12 19 34 21 55 1 18-10 36-25 44-18 11-38 12-52 8-26-8-38-27-32-53 3-14 17-25 28-27 13-2 27 6 26 12 2-9-13-23-20-25-25-7-46 6-57 27-11 21-12 46-6 64 15 45 55 61 87 57 66-1 111-45 124-94 8-49-14-79-55-118-25-24-30-38-21-69 7-27 27-53 50-65 19-10 55-16 63-21zm-99 90c-4 13 1 23 1 23 8 2 13-5 30-4 39 3 58 18 69 27 49 42 72 62 103 70 45 14 81 10 100 0 32-13 49-37 55-75-19 31-43 48-83 44-27-4-43-15-78-39-49-44-69-70-88-76-25-12-52-17-80-7-15 8-24 20-29 37z"/>
</svg>
